<?xml version="1.0" encoding="UTF-8"?>
<svg id="Layer_1" xmlns="http://www.w3.org/2000/svg" width="600" height="139.4" xmlns:xlink="http://www.w3.org/1999/xlink" version="1.1" viewBox="0 0 600 139.4">
  <!-- Generator: Adobe Illustrator 30.1.0, SVG Export Plug-In . SVG Version: 2.1.1 Build 136)  -->
  <path d="M-899.2,58.7h49.8l24.4,67.6,25.8-67.6h49.7v149.2h-39.8v-82.1l-35.7,82.1h0l-34.4-82.1v82.1h-39.8V58.7Z" fill="#2799ff"/>
  <path d="M-1050.1,58.7h131.8v45.6h-92v17.5h82.1v42h-82.1v44h-39.8V58.7Z" fill="#2799ff"/>
  <path d="M-749.5,39.5c0-50.8-.1-95.2,0-140.4-50.7,0-95.3.2-140.4,0,0,13.5,0,26.6-.1,39.7,26.6,0,54.5,0,77.5,0l-82.6,79.8,26.1,26.1,80-79.6c0,25.8.1,48.6,0,74.4,12.4,0,28.6,0,39.5,0h0Z" fill="#fff"/>
  <g>
    <path d="M-987.5-100.9h-48.2c-10.6,0-19.1,8.6-19.1,19.1v48.2c33.9-6.9,60.4-33.4,67.3-67.3Z" fill="#fff"/>
    <path d="M-913.6-33.5v-48.2c0-10.6-8.6-19.1-19.1-19.1h-48.2c6.9,33.9,33.4,60.4,67.3,67.3Z" fill="#fff"/>
    <path d="M-1054.8-27V21.2c0,10.6,8.6,19.1,19.1,19.1h48.2c-6.9-33.9-33.4-60.4-67.3-67.3Z" fill="#fff"/>
    <path d="M-981,40.4h48.2c10.6,0,19.1-8.6,19.1-19.1V-27c-33.9,6.9-60.4,33.4-67.3,67.3Z" fill="#fff"/>
  </g>
  <g>
    <path d="M-1051.8,236.6h-5.2v-3.8h5.2v-2.2c0-2.6.9-4.6,2.6-6,1.7-1.4,4.1-2.2,7.2-2.2s3.6.2,5.2.7l-.8,3.7c-.6-.2-1.1-.3-1.7-.3s-1.2,0-1.9,0c-3.8,0-5.8,1.4-5.8,4.3v2.2h9v3.8h-9v22.6h-4.8v-22.6ZM-1033.1,222.8h5.1v5.2h-5.1v-5.2ZM-1032.9,232.9h4.8v26.4h-4.8v-26.4Z" fill="#fff"/>
    <path d="M-1021.8,232.9h4.7v4.9c2.6-3.6,5.9-5.4,9.9-5.4s1.7,0,2.8.3l-.6,4.2c-1-.2-1.8-.3-2.6-.3-2.8,0-5,.8-6.8,2.5-1.8,1.6-2.7,3.5-2.7,5.7v14.4h-4.8v-26.4Z" fill="#fff"/>
    <path d="M-980.2,252.1c0-1.2-.5-2-1.6-2.6-1.1-.6-3.1-1.1-6.1-1.5l-3.1-.5c-2.7-.4-4.8-.9-6.4-1.6-1.6-.6-2.7-1.5-3.4-2.5-.7-1-1-2.3-1-3.9,0-2.4,1.1-4.2,3.3-5.6,2.2-1.3,5.2-2,9.1-2s6.8.6,8.9,1.7c2.1,1.1,3.5,3,4.2,5.5l-4.4.6c-1-2.7-3.9-4-8.7-4s-4.4.3-5.8,1c-1.4.7-2.1,1.6-2.1,2.8s.5,2,1.5,2.6c1,.6,2.9,1.1,5.6,1.5l3.4.5c2.9.4,5.1.9,6.7,1.6,1.6.6,2.8,1.4,3.5,2.4.7,1,1,2.3,1,3.9,0,5.4-4.4,8.1-13.1,8.1s-13-2.8-14-8.5h4.5c1,3.2,4.1,4.7,9.3,4.7s4.9-.4,6.4-1.1c1.5-.7,2.3-1.7,2.3-3.1Z" fill="#fff"/>
    <path d="M-968.8,251.1v-14.4h-5.2v-3.8h5.2v-7.2h4.8v7.2h9.4v3.8h-9.4v14.8c0,2.9,1.5,4.4,4.4,4.4s3.3-.3,4.9-.8l.8,3.7c-2,.7-4.2,1-6.5,1s-5-.7-6.4-2.1c-1.4-1.4-2-3.6-2-6.6Z" fill="#fff"/>
    <path d="M-938.4,232.9h4.7v4.9c2.8-3.8,6.2-5.7,10.4-5.7s8,1.9,9.3,5.6c1.5-1.9,3.1-3.4,4.9-4.3,1.8-.9,3.8-1.4,6.1-1.4,6.7,0,10,3.4,10,10.2v17h-4.8v-16.1c0-2.4-.5-4.2-1.5-5.3-1-1.1-2.7-1.7-4.9-1.7s-4.7.9-6.7,2.7c-1.6,1.4-2.4,3.1-2.4,5.1v15.4h-4.8v-16.1c0-2.4-.5-4.2-1.5-5.3-1-1.1-2.7-1.7-4.9-1.7s-4.7,1-6.7,3c-1.6,1.6-2.4,3.5-2.4,5.7v14.4h-4.8v-26.4Z" fill="#fff"/>
    <path d="M-888.3,246.1c0-2.9.6-5.3,1.9-7.4,1.3-2.1,3.1-3.7,5.4-4.9,2.3-1.2,5-1.7,8.1-1.7s5.8.6,8.1,1.7c2.3,1.1,4,2.7,5.2,4.8,1.2,2.1,1.8,4.6,1.8,7.4s-.6,5.3-1.9,7.4c-1.3,2.1-3.1,3.8-5.4,4.9-2.3,1.2-5,1.7-8.2,1.7s-5.8-.6-8.1-1.7c-2.3-1.1-4-2.7-5.3-4.8-1.2-2.1-1.8-4.6-1.8-7.4ZM-883.2,246c0,3.2.9,5.7,2.7,7.4,1.8,1.8,4.3,2.7,7.5,2.7s5.8-.9,7.6-2.6c1.8-1.8,2.7-4.2,2.7-7.4s-.9-5.7-2.7-7.5c-1.8-1.8-4.3-2.6-7.5-2.6s-5.8.9-7.6,2.6c-1.8,1.8-2.7,4.2-2.7,7.4Z" fill="#fff"/>
    <path d="M-842.1,254.3l9.8-21.5h5.4l-12.7,26.4h-5.1l-12.7-26.4h5.6l9.7,21.5Z" fill="#fff"/>
    <path d="M-827,246.3c0-2.9.6-5.3,1.8-7.5,1.2-2.1,2.9-3.8,5.1-5,2.2-1.2,4.7-1.8,7.6-1.8,4.5,0,7.9,1.2,10.4,3.5,2.5,2.3,3.7,5.6,3.7,9.8v2.1h-23.9c.1,2.8,1,5,2.8,6.6,1.8,1.5,4.1,2.3,7,2.3,4.9,0,8-1.5,9.1-4.4h4.6c-1.4,5.5-6.1,8.2-13.9,8.2s-8-1.2-10.6-3.7-3.8-5.8-3.8-10.1ZM-820.7,239.9c-.6,1.2-1.1,2.5-1.3,3.9h19c-.1-2.8-.9-4.8-2.5-6.1-1.5-1.3-3.9-1.9-7-1.9s-3.9.4-5.2,1.1c-1.3.7-2.3,1.7-2.9,3Z" fill="#fff"/>
    <path d="M-793.4,232.9h4.7v4.9c2.6-3.6,5.9-5.4,9.9-5.4s1.7,0,2.8.3l-.6,4.2c-1-.2-1.8-.3-2.6-.3-2.8,0-5,.8-6.8,2.5-1.8,1.6-2.7,3.5-2.7,5.7v14.4h-4.8v-26.4Z" fill="#fff"/>
    <path d="M-751.8,252.1c0-1.2-.5-2-1.6-2.6-1.1-.6-3.1-1.1-6.1-1.5l-3.1-.5c-2.7-.4-4.8-.9-6.4-1.6-1.6-.6-2.7-1.5-3.4-2.5-.7-1-1-2.3-1-3.9,0-2.4,1.1-4.2,3.3-5.6,2.2-1.3,5.2-2,9.1-2s6.8.6,8.9,1.7c2.1,1.1,3.5,3,4.2,5.5l-4.4.6c-1-2.7-3.9-4-8.7-4s-4.4.3-5.8,1c-1.4.7-2.1,1.6-2.1,2.8s.5,2,1.5,2.6c1,.6,2.9,1.1,5.6,1.5l3.4.5c2.9.4,5.1.9,6.7,1.6,1.6.6,2.8,1.4,3.5,2.4.7,1,1,2.3,1,3.9,0,5.4-4.4,8.1-13.1,8.1s-13-2.8-14-8.5h4.5c1,3.2,4.1,4.7,9.3,4.7s4.9-.4,6.4-1.1c1.5-.7,2.3-1.7,2.3-3.1Z" fill="#fff"/>
  </g>
  <path d="M-1690.8-100.9h131.8v45.6h-92v17.5h82.1V4.3h-82.1v44h-39.8V-100.9Z" fill="#2799ff"/>
  <path d="M-1549.9,202.7c0-50.8-.1-95.2,0-140.4-50.7,0-95.3.2-140.4,0,0,13.5,0,26.6-.1,39.7,26.6,0,54.5,0,77.5,0l-82.6,79.8,26.1,26.1,80-79.6c0,25.8.1,48.6,0,74.4,12.4,0,28.6,0,39.5,0h0Z" fill="#fff"/>
  <g>
    <path d="M-2262.9-851.9h-48.2c-10.6,0-19.1,8.6-19.1,19.1v48.2c33.9-6.9,60.4-33.4,67.3-67.3Z" fill="#fff"/>
    <path d="M-2189-784.5v-48.2c0-10.6-8.6-19.1-19.1-19.1h-48.2c6.9,33.9,33.4,60.4,67.3,67.3Z" fill="#fff"/>
    <path d="M-2330.3-778v48.2c0,10.6,8.6,19.1,19.1,19.1h48.2c-6.9-33.9-33.4-60.4-67.3-67.3Z" fill="#fff"/>
    <path d="M-2256.4-710.6h48.2c10.6,0,19.1-8.6,19.1-19.1v-48.2c-33.9,6.9-60.4,33.4-67.3,67.3Z" fill="#fff"/>
  </g>
  <g>
    <path d="M-1692.5,236.6h-5.2v-3.8h5.2v-2.2c0-2.6.9-4.6,2.6-6,1.7-1.4,4.1-2.2,7.2-2.2s3.6.2,5.2.7l-.8,3.7c-.6-.2-1.1-.3-1.7-.3s-1.2,0-1.9,0c-3.8,0-5.8,1.4-5.8,4.3v2.2h9v3.8h-9v22.6h-4.8v-22.6ZM-1673.8,222.8h5.1v5.2h-5.1v-5.2ZM-1673.6,232.9h4.8v26.4h-4.8v-26.4Z" fill="#fff"/>
    <path d="M-1662.5,232.9h4.7v4.9c2.6-3.6,5.9-5.4,9.9-5.4s1.7,0,2.8.3l-.6,4.2c-1-.2-1.8-.3-2.6-.3-2.8,0-5,.8-6.8,2.5-1.8,1.6-2.7,3.5-2.7,5.7v14.4h-4.8v-26.4Z" fill="#fff"/>
    <path d="M-1620.9,252.1c0-1.2-.5-2-1.6-2.6-1.1-.6-3.1-1.1-6.1-1.5l-3.1-.5c-2.7-.4-4.8-.9-6.4-1.6-1.6-.6-2.7-1.5-3.4-2.5-.7-1-1-2.3-1-3.9,0-2.4,1.1-4.2,3.3-5.6,2.2-1.3,5.2-2,9.1-2s6.8.6,8.9,1.7c2.1,1.1,3.5,3,4.2,5.5l-4.4.6c-1-2.7-3.9-4-8.7-4s-4.4.3-5.8,1c-1.4.7-2.1,1.6-2.1,2.8s.5,2,1.5,2.6c1,.6,2.9,1.1,5.6,1.5l3.4.5c2.9.4,5.1.9,6.7,1.6,1.6.6,2.8,1.4,3.5,2.4.7,1,1,2.3,1,3.9,0,5.4-4.4,8.1-13.1,8.1s-13-2.8-14-8.5h4.5c1,3.2,4.1,4.7,9.3,4.7s4.9-.4,6.4-1.1c1.5-.7,2.3-1.7,2.3-3.1Z" fill="#fff"/>
    <path d="M-1609.5,251.1v-14.4h-5.2v-3.8h5.2v-7.2h4.8v7.2h9.4v3.8h-9.4v14.8c0,2.9,1.5,4.4,4.4,4.4s3.3-.3,4.9-.8l.8,3.7c-2,.7-4.2,1-6.5,1s-5-.7-6.4-2.1c-1.4-1.4-2-3.6-2-6.6Z" fill="#fff"/>
    <path d="M-1579.1,232.9h4.7v4.9c2.8-3.8,6.2-5.7,10.4-5.7s8,1.9,9.3,5.6c1.5-1.9,3.1-3.4,4.9-4.3,1.8-.9,3.8-1.4,6.1-1.4,6.7,0,10,3.4,10,10.2v17h-4.8v-16.1c0-2.4-.5-4.2-1.5-5.3-1-1.1-2.7-1.7-4.9-1.7s-4.7.9-6.7,2.7c-1.6,1.4-2.4,3.1-2.4,5.1v15.4h-4.8v-16.1c0-2.4-.5-4.2-1.5-5.3-1-1.1-2.7-1.7-4.9-1.7s-4.7,1-6.7,3c-1.6,1.6-2.4,3.5-2.4,5.7v14.4h-4.8v-26.4Z" fill="#fff"/>
    <path d="M-1529,246.1c0-2.9.6-5.3,1.9-7.4,1.3-2.1,3.1-3.7,5.4-4.9,2.3-1.2,5-1.7,8.1-1.7s5.8.6,8.1,1.7c2.3,1.1,4,2.7,5.2,4.8,1.2,2.1,1.8,4.6,1.8,7.4s-.6,5.3-1.9,7.4c-1.3,2.1-3.1,3.8-5.4,4.9-2.3,1.2-5,1.7-8.2,1.7s-5.8-.6-8.1-1.7c-2.3-1.1-4-2.7-5.3-4.8-1.2-2.1-1.8-4.6-1.8-7.4ZM-1523.9,246c0,3.2.9,5.7,2.7,7.4,1.8,1.8,4.3,2.7,7.5,2.7s5.8-.9,7.6-2.6c1.8-1.8,2.7-4.2,2.7-7.4s-.9-5.7-2.7-7.5c-1.8-1.8-4.3-2.6-7.5-2.6s-5.8.9-7.6,2.6c-1.8,1.8-2.7,4.2-2.7,7.4Z" fill="#fff"/>
    <path d="M-1482.8,254.3l9.8-21.5h5.4l-12.7,26.4h-5.1l-12.7-26.4h5.6l9.7,21.5Z" fill="#fff"/>
    <path d="M-1467.7,246.3c0-2.9.6-5.3,1.8-7.5,1.2-2.1,2.9-3.8,5.1-5,2.2-1.2,4.7-1.8,7.6-1.8,4.5,0,7.9,1.2,10.4,3.5,2.5,2.3,3.7,5.6,3.7,9.8v2.1h-23.9c.1,2.8,1,5,2.8,6.6,1.8,1.5,4.1,2.3,7,2.3,4.9,0,8-1.5,9.1-4.4h4.6c-1.4,5.5-6.1,8.2-13.9,8.2s-8-1.2-10.6-3.7-3.8-5.8-3.8-10.1ZM-1461.4,239.9c-.6,1.2-1.1,2.5-1.3,3.9h19c-.1-2.8-.9-4.8-2.5-6.1-1.5-1.3-3.9-1.9-7-1.9s-3.9.4-5.2,1.1c-1.3.7-2.3,1.7-2.9,3Z" fill="#fff"/>
    <path d="M-1434.1,232.9h4.7v4.9c2.6-3.6,5.9-5.4,9.9-5.4s1.7,0,2.8.3l-.6,4.2c-1-.2-1.8-.3-2.6-.3-2.8,0-5,.8-6.8,2.5-1.8,1.6-2.7,3.5-2.7,5.7v14.4h-4.8v-26.4Z" fill="#fff"/>
    <path d="M-1392.5,252.1c0-1.2-.5-2-1.6-2.6-1.1-.6-3.1-1.1-6.1-1.5l-3.1-.5c-2.7-.4-4.8-.9-6.4-1.6-1.6-.6-2.7-1.5-3.4-2.5-.7-1-1-2.3-1-3.9,0-2.4,1.1-4.2,3.3-5.6,2.2-1.3,5.2-2,9.1-2s6.8.6,8.9,1.7c2.1,1.1,3.5,3,4.2,5.5l-4.4.6c-1-2.7-3.9-4-8.7-4s-4.4.3-5.8,1c-1.4.7-2.1,1.6-2.1,2.8s.5,2,1.5,2.6c1,.6,2.9,1.1,5.6,1.5l3.4.5c2.9.4,5.1.9,6.7,1.6,1.6.6,2.8,1.4,3.5,2.4.7,1,1,2.3,1,3.9,0,5.4-4.4,8.1-13.1,8.1s-13-2.8-14-8.5h4.5c1,3.2,4.1,4.7,9.3,4.7s4.9-.4,6.4-1.1c1.5-.7,2.3-1.7,2.3-3.1Z" fill="#fff"/>
  </g>
  <g>
    <path d="M-1394.5,62.9v30.9c-29.6,2.1-60,4.4-88.3,13.9-13.1,4.4-44.1,16.8-29.4,35,14.9,18.4,76,27.2,99.4,29s13.9-1.9,18.4,2.2v30.2h-141.2V62.9h141.2Z" fill="#fff"/>
    <rect x="-1435" y="128.9" width="40.5" height="58" fill="#fff"/>
  </g>
  <path d="M-2413.4,193.6h138.5c45.4,0,93.1,61.5,96.8,104.2,5,58-42.3,131.1-104.1,131.1h-127.5l-3.7-3.7v-231.6ZM-2237.6,238.3c-9.5-9-32.8.5-42.7,6.2-32.4,18.6-79.8,72.8-93.3,107.7-15.5,40-6.4,62.4,37.5,39.9,34.8-17.8,82.2-73.4,96.2-109.7,4.5-11.6,12.9-34.3,2.4-44.1Z" fill="#fff"/>
  <path d="M-1390.2-100.9h-141.2s0,141.2,0,141.2h141.2s0-141.2,0-141.2ZM-1413.4-71.4c5.3,5.7-.3,19.5-3.7,25.5-11.1,19.3-43.3,47.5-64.1,55.6-23.8,9.2-37.1,3.8-23.8-22.3,10.6-20.7,43.7-49,65.3-57.3,6.9-2.7,20.4-7.7,26.3-1.4Z" fill="#fff"/>
  <path d="M-2026.7-864.7h131.8v45.6h-92v17.5h82.1v42h-82.1v44h-39.8v-149.2Z" fill="#2799ff"/>
  <path d="M-1885.8-561.1c0-50.8-.1-95.2,0-140.4-50.7,0-95.3.2-140.4,0,0,13.5,0,26.6-.1,39.7,26.6,0,54.5,0,77.5,0l-82.6,79.8,26.1,26.1,80-79.6c0,25.8.1,48.6,0,74.4,12.4,0,28.6,0,39.5,0h0Z" fill="#fff"/>
  <g>
    <path d="M-2129.6,189.2h-5.2v-3.8h5.2v-2.2c0-2.6.9-4.6,2.6-6,1.7-1.4,4.1-2.2,7.2-2.2s3.6.2,5.2.7l-.8,3.7c-.6-.2-1.1-.3-1.7-.3s-1.2,0-1.9,0c-3.8,0-5.8,1.4-5.8,4.3v2.2h9v3.8h-9v22.6h-4.8v-22.6ZM-2110.9,175.4h5.1v5.2h-5.1v-5.2ZM-2110.7,185.4h4.8v26.4h-4.8v-26.4Z" fill="#fff"/>
    <path d="M-2099.6,185.4h4.7v4.9c2.6-3.6,5.9-5.4,9.9-5.4s1.7,0,2.8.3l-.6,4.2c-1-.2-1.8-.3-2.6-.3-2.8,0-5,.8-6.8,2.5-1.8,1.6-2.7,3.5-2.7,5.7v14.4h-4.8v-26.4Z" fill="#fff"/>
    <path d="M-2058,204.7c0-1.2-.5-2-1.6-2.6-1.1-.6-3.1-1.1-6.1-1.5l-3.1-.5c-2.7-.4-4.8-.9-6.4-1.6-1.6-.6-2.7-1.5-3.4-2.5-.7-1-1-2.3-1-3.9,0-2.4,1.1-4.2,3.3-5.6,2.2-1.3,5.2-2,9.1-2s6.8.6,8.9,1.7c2.1,1.1,3.5,3,4.2,5.5l-4.4.6c-1-2.7-3.9-4-8.7-4s-4.4.3-5.8,1c-1.4.7-2.1,1.6-2.1,2.8s.5,2,1.5,2.6c1,.6,2.9,1.1,5.6,1.5l3.4.5c2.9.4,5.1.9,6.7,1.6,1.6.6,2.8,1.4,3.5,2.4.7,1,1,2.3,1,3.9,0,5.4-4.4,8.1-13.1,8.1s-13-2.8-14-8.5h4.5c1,3.2,4.1,4.7,9.3,4.7s4.9-.4,6.4-1.1c1.5-.7,2.3-1.7,2.3-3.1Z" fill="#fff"/>
    <path d="M-2046.6,203.6v-14.4h-5.2v-3.8h5.2v-7.2h4.8v7.2h9.4v3.8h-9.4v14.8c0,2.9,1.5,4.4,4.4,4.4s3.3-.3,4.9-.8l.8,3.7c-2,.7-4.2,1-6.5,1s-5-.7-6.4-2.1c-1.4-1.4-2-3.6-2-6.6Z" fill="#fff"/>
    <path d="M-2016.2,185.4h4.7v4.9c2.8-3.8,6.2-5.7,10.4-5.7s8,1.9,9.3,5.6c1.5-1.9,3.1-3.4,4.9-4.3,1.8-.9,3.8-1.4,6.1-1.4,6.7,0,10,3.4,10,10.2v17h-4.8v-16.1c0-2.4-.5-4.2-1.5-5.3-1-1.1-2.7-1.7-4.9-1.7s-4.7.9-6.7,2.7c-1.6,1.4-2.4,3.1-2.4,5.1v15.4h-4.8v-16.1c0-2.4-.5-4.2-1.5-5.3-1-1.1-2.7-1.7-4.9-1.7s-4.7,1-6.7,3c-1.6,1.6-2.4,3.5-2.4,5.7v14.4h-4.8v-26.4Z" fill="#fff"/>
    <path d="M-1966,198.7c0-2.9.6-5.3,1.9-7.4,1.3-2.1,3.1-3.7,5.4-4.9,2.3-1.2,5-1.7,8.1-1.7s5.8.6,8.1,1.7c2.3,1.1,4,2.7,5.2,4.8,1.2,2.1,1.8,4.6,1.8,7.4s-.6,5.3-1.9,7.4c-1.3,2.1-3.1,3.8-5.4,4.9-2.3,1.2-5,1.7-8.2,1.7s-5.8-.6-8.1-1.7c-2.3-1.1-4-2.7-5.3-4.8-1.2-2.1-1.8-4.6-1.8-7.4ZM-1961,198.6c0,3.2.9,5.7,2.7,7.4,1.8,1.8,4.3,2.7,7.5,2.7s5.8-.9,7.6-2.6c1.8-1.8,2.7-4.2,2.7-7.4s-.9-5.7-2.7-7.5c-1.8-1.8-4.3-2.6-7.5-2.6s-5.8.9-7.6,2.6c-1.8,1.8-2.7,4.2-2.7,7.4Z" fill="#fff"/>
    <path d="M-1919.9,206.9l9.8-21.5h5.4l-12.7,26.4h-5.1l-12.7-26.4h5.6l9.7,21.5Z" fill="#fff"/>
    <path d="M-1904.8,198.8c0-2.9.6-5.3,1.8-7.5,1.2-2.1,2.9-3.8,5.1-5,2.2-1.2,4.7-1.8,7.6-1.8,4.5,0,7.9,1.2,10.4,3.5,2.5,2.3,3.7,5.6,3.7,9.8v2.1h-23.9c.1,2.8,1,5,2.8,6.6,1.8,1.5,4.1,2.3,7,2.3,4.9,0,8-1.5,9.1-4.4h4.6c-1.4,5.5-6.1,8.2-13.9,8.2s-8-1.2-10.6-3.7-3.8-5.8-3.8-10.1ZM-1898.4,192.4c-.6,1.2-1.1,2.5-1.3,3.9h19c-.1-2.8-.9-4.8-2.5-6.1-1.5-1.3-3.9-1.9-7-1.9s-3.9.4-5.2,1.1c-1.3.7-2.3,1.7-2.9,3Z" fill="#fff"/>
    <path d="M-1871.2,185.4h4.7v4.9c2.6-3.6,5.9-5.4,9.9-5.4s1.7,0,2.8.3l-.6,4.2c-1-.2-1.8-.3-2.6-.3-2.8,0-5,.8-6.8,2.5-1.8,1.6-2.7,3.5-2.7,5.7v14.4h-4.8v-26.4Z" fill="#fff"/>
    <path d="M-1829.6,204.7c0-1.2-.5-2-1.6-2.6-1.1-.6-3.1-1.1-6.1-1.5l-3.1-.5c-2.7-.4-4.8-.9-6.4-1.6-1.6-.6-2.7-1.5-3.4-2.5-.7-1-1-2.3-1-3.9,0-2.4,1.1-4.2,3.3-5.6,2.2-1.3,5.2-2,9.1-2s6.8.6,8.9,1.7c2.1,1.1,3.5,3,4.2,5.5l-4.4.6c-1-2.7-3.9-4-8.7-4s-4.4.3-5.8,1c-1.4.7-2.1,1.6-2.1,2.8s.5,2,1.5,2.6c1,.6,2.9,1.1,5.6,1.5l3.4.5c2.9.4,5.1.9,6.7,1.6,1.6.6,2.8,1.4,3.5,2.4.7,1,1,2.3,1,3.9,0,5.4-4.4,8.1-13.1,8.1s-13-2.8-14-8.5h4.5c1,3.2,4.1,4.7,9.3,4.7s4.9-.4,6.4-1.1c1.5-.7,2.3-1.7,2.3-3.1Z" fill="#fff"/>
  </g>
  <g>
    <path d="M-1730.4-700.9v30.9c-29.6,2.1-60,4.4-88.3,13.9-13.1,4.4-44.1,16.8-29.4,35,14.9,18.4,76,27.2,99.4,29s13.9-1.9,18.4,2.2v30.2h-141.2v-141.2h141.2Z" fill="#fff"/>
    <rect x="-1770.9" y="-634.9" width="40.5" height="58" fill="#fff"/>
  </g>
  <path d="M-1730.4-864.7h-141.2s0,141.2,0,141.2h141.2s0-141.2,0-141.2ZM-1753.7-835.2c5.3,5.7-.3,19.5-3.7,25.5-11.1,19.3-43.3,47.5-64.1,55.6-23.8,9.2-37.1,3.8-23.8-22.3,10.6-20.7,43.7-49,65.3-57.3,6.9-2.7,20.4-7.7,26.3-1.4Z" fill="#fff"/>
  <path d="M-1037.4-864.7h131.8v45.6h-92v17.5h82.1v42h-82.1v44h-39.8v-149.2Z" fill="#2799ff"/>
  <path d="M-896.5-561.1c0-50.8-.1-95.2,0-140.4-50.7,0-95.3.2-140.4,0,0,13.5,0,26.6-.1,39.7,26.6,0,54.5,0,77.5,0l-82.6,79.8,26.1,26.1,80-79.6c0,25.8.1,48.6,0,74.4,12.4,0,28.6,0,39.5,0h0Z" fill="#fff"/>
  <g>
    <path d="M-741.1-700.9v30.9c-29.6,2.1-60,4.4-88.3,13.9-13.1,4.4-44.1,16.8-29.4,35,14.9,18.4,76,27.2,99.4,29s13.9-1.9,18.4,2.2v30.2h-141.2v-141.2h141.2Z" fill="#fff"/>
    <rect x="-781.6" y="-634.9" width="40.5" height="58" fill="#fff"/>
  </g>
  <path d="M-2485.3-851.8h140.8v39.6h-101v25.6h91.1v36h-91.1v40h-39.8v-141.2Z" fill="#fff"/>
  <path d="M-2344.4-556.3c0-50.8-.1-95.2,0-140.4-50.7,0-95.3.2-140.4,0,0,13.5,0,26.6-.1,39.7,26.6,0,54.5,0,77.5,0l-80.6,76.8,26.1,26.1,78-76.6c0,25.8.1,48.6,0,74.4,12.4,0,28.6,0,39.5,0h0Z" fill="#fff"/>
  <g>
    <path d="M-2189-696.1v30.9c-29.6,2.1-60,4.4-88.3,13.9-13.1,4.4-44.1,16.8-29.4,35,14.9,18.4,76,27.2,99.4,29s13.9-1.9,18.4,2.2v30.2h-141.2v-141.2h141.2Z" fill="#fff"/>
    <rect x="-2229.6" y="-630" width="40.5" height="58" fill="#fff"/>
  </g>
  <g>
    <g>
      <path d="M218,.7h-47.1c-10.3,0-18.7,8.4-18.7,18.7v47.1c33.2-6.7,59.1-32.7,65.8-65.8Z" fill="#decebc"/>
      <path d="M290.2,66.5V19.4c0-10.3-8.4-18.7-18.7-18.7h-47.1c6.7,33.1,32.7,59.1,65.8,65.8Z" fill="#decebc"/>
      <path d="M152.2,72.9v47.1c0,10.3,8.4,18.7,18.7,18.7h47.1c-6.7-33.2-32.7-59.1-65.8-65.8Z" fill="#decebc"/>
      <path d="M224.4,138.7h47.1c10.3,0,18.7-8.4,18.7-18.7v-47.1c-33.1,6.7-59.1,32.7-65.8,65.8Z" fill="#decebc"/>
    </g>
    <path d="M0,.7h137.6v38.7H38.9v25h89v35.2H38.9v39.1H0V.7Z" fill="#decebc"/>
    <path d="M443.8,137.2c0-49.6-.1-93,0-137.2-49.6,0-93.1.2-137.2,0,0,13.2,0,26-.1,38.8,26,0,53.2,0,75.8,0l-78.8,75,25.5,25.5,76.2-74.9c0,25.2.1,47.5,0,72.7,12.2,0,27.9,0,38.6,0h0Z" fill="#decebc"/>
    <path d="M513.7,44.5c27.6-9.3,57.4-11.5,86.3-13.6V.7h-138v138h138v-73.5h-36.6v39.8c-27.4-3.8-67-12.1-78.4-26.3-14.3-17.7,15.9-29.8,28.8-34.2Z" fill="#decebc"/>
  </g>
  <path d="M-1390.2,416h-141.2s0,141.2,0,141.2h141.2s0-141.2,0-141.2Z" fill="#fff"/>
  <path d="M-1415.8,483.9v5.4c0,2.8-2.2,5-5,5h-21.4l15.1,15.1c2,2,2,5.1,0,7.1l-3.9,3.9c-2,2-5.1,2-7.1,0l-15.1-15.1v21.4c0,2.8-2.2,5-5,5h-5.4c-2.8,0-5-2.2-5-5v-21.4l-15.1,15.1c-2,2-5.1,2-7.1,0l-3.9-3.9c-2-2-2-5.1,0-7.1l15.1-15.1h-21.4c-2.8,0-5-2.2-5-5v-5.4c0-2.8,2.2-5,5-5h21.4l-15.1-15.1c-2-2-2-5.1,0-7.1l3.9-3.9c2-2,5.1-2,7.1,0l15.1,15.1v-21.4c0-2.8,2.2-5,5-5h5.4c2.8,0,5,2.2,5,5v21.4l15.1-15.1c2-2,5.1-2,7.1,0l3.9,3.9c2,2,2,5.1,0,7.1l-15.1,15.1h21.4c2.8,0,5,2.2,5,5Z"/>
  <path d="M-882.3-864.7v141.2h141.2v-141.2h-141.2ZM-766.7-791.3c0,2.8-2.2,5-5,5h-21.4l15.1,15.1c2,2,2,5.1,0,7.1l-3.9,3.9c-2,2-5.1,2-7.1,0l-15.1-15.1v21.4c0,2.8-2.2,5-5,5h-5.4c-2.8,0-5-2.2-5-5v-21.4l-15.1,15.1c-2,2-5.1,2-7.1,0l-3.9-3.9c-2-2-2-5.1,0-7.1l15.1-15.1h-21.4c-2.8,0-5-2.2-5-5v-5.4c0-2.8,2.2-5,5-5h21.4l-15.1-15.1c-2-2-2-5.1,0-7.1l3.9-3.9c2-2,5.1-2,7.1,0l15.1,15.1v-21.4c0-2.8,2.2-5,5-5h5.4c2.8,0,5,2.2,5,5v21.4l15.1-15.1c2-2,5.1-2,7.1,0l3.9,3.9c2,2,2,5.1,0,7.1l-15.1,15.1h21.4c2.8,0,5,2.2,5,5v5.4Z" fill="#fff"/>
  <image width="468" height="194" transform="translate(-2067.1 -1297.7) scale(.8)" xlink:href="forge-logo-1.png"/>
  <g>
    <image width="2779" height="1357" transform="translate(-3929.8 -1005.8) scale(.8)" xlink:href="../Pictures/Vivaldi Captures/2026-02-09 13.08.02 forge-hackathon.vercel.app 9f4e249ff3b1.png"/>
    <g>
      <g>
        <path d="M-2842-905.9h-25.4c-5.5,0-10,4.5-10,10v25.4c17.8-3.6,31.8-17.6,35.4-35.4Z" fill="#decebc"/>
        <path d="M-2803.2-870.4v-25.4c0-5.5-4.5-10-10-10h-25.4c3.6,17.8,17.6,31.8,35.4,35.4Z" fill="#decebc"/>
        <path d="M-2877.5-867v25.4c0,5.5,4.5,10,10,10h25.4c-3.6-17.8-17.6-31.8-35.4-35.4Z" fill="#decebc"/>
        <path d="M-2838.6-831.6h25.4c5.5,0,10-4.5,10-10v-25.4c-17.8,3.6-31.8,17.6-35.4,35.4Z" fill="#decebc"/>
      </g>
      <path d="M-2959.4-905.8h74v20.8h-53.1v13.4h47.9v19h-47.9v21.1h-20.9v-74.3Z" fill="#decebc"/>
      <path d="M-2720.5-832.4c0-26.7,0-50.1,0-73.8-26.7,0-50.1,0-73.8,0,0,7.1,0,14,0,20.9,14,0,28.6,0,40.8,0l-42.4,40.4,13.7,13.7,41-40.3c0,13.6,0,25.6,0,39.1,6.5,0,15,0,20.8,0h0Z" fill="#decebc"/>
      <path d="M-2682.9-882.3c14.9-5,30.9-6.2,46.4-7.3v-16.2h-74.3v74.3h74.3v-39.5h-19.7v21.4c-14.8-2-36-6.5-42.2-14.2-7.7-9.5,8.6-16.1,15.5-18.4Z" fill="#decebc"/>
    </g>
    <rect x="-3895.9" y="-966.2" width="220.2" height="94.9" fill="#17141a"/>
    <rect x="-2039.2" y="-970.7" width="327.5" height="90.4" fill="#16201b"/>
  </g>
</svg>